<?xml version="1.0" encoding="UTF-8"?>
<!-- Generated by Pixelmator Pro 3.3.2 -->
<svg width="1250" height="1250" viewBox="0 0 1250 1250" xmlns="http://www.w3.org/2000/svg" xmlns:xlink="http://www.w3.org/1999/xlink">
    <path id="Path" fill="none" stroke="#ffffff" stroke-width="50" d="M 789.193604 1070.856689 C 970.614746 1004.023438 1100 829.621521 1100 625 L 1100 625 M 789.193542 179 C 970.614746 245.833191 1100 420.235168 1100 624.856628 L 1100 624.856628"/>
    <path id="Path-copy-2" fill="none" stroke="#ffffff" stroke-width="50" d="M 460.806458 179.143311 C 279.385254 245.976563 150 420.37854 150 625 L 150 625 M 460.806427 1071 C 279.385254 1004.166809 150 829.764893 150 625.143372 L 150 625.143372"/>
    <path id="Ellipse" fill="none" stroke="#ffffff" stroke-width="50" d="M 1225 625 C 1225 293.62915 956.37085 25 625 25 C 293.62915 25 25 293.62915 25 625 C 25 956.37085 293.62915 1225 625 1225 C 956.37085 1225 1225 956.37085 1225 625 Z"/>
    <path id="Line" fill="none" stroke="#ffffff" stroke-width="50" d="M 275 525 L 1100 525"/>
    <path id="path1" fill="none" stroke="#ffffff" stroke-width="50" d="M 150 725 L 975 725"/>
    <path id="path2" fill="none" stroke="#ffffff" stroke-width="50" d="M 200 851 L 1050 851"/>
    <path id="Line-copy" fill="none" stroke="#ffffff" stroke-width="50" d="M 200 401 L 1050 401"/>
</svg>
